<svg width="480" height="287" viewBox="0 0 480 287" fill="none" xmlns="http://www.w3.org/2000/svg">
<path d="M173.412 130.24C174.452 130.24 175.252 130.72 175.812 131.68C176.452 132.64 176.772 133.96 176.772 135.64C176.772 138.84 176.012 141.32 174.492 143.08C171.052 147.32 167.292 150.8 163.212 153.52C159.212 156.24 154.652 157.6 149.532 157.6C142.492 157.6 137.252 154.4 133.812 148C130.452 141.6 128.772 133.32 128.772 123.16C128.772 113.4 130.012 102.28 132.492 89.8C135.052 77.32 138.772 66.6 143.652 57.64C148.612 48.68 154.492 44.2 161.292 44.2C165.132 44.2 168.132 46 170.292 49.6C172.532 53.12 173.652 58.2 173.652 64.84C173.652 74.36 171.012 85.4 165.732 97.96C160.452 110.52 153.292 122.96 144.252 135.28C144.812 138.56 145.732 140.92 147.012 142.36C148.292 143.72 149.972 144.4 152.052 144.4C155.332 144.4 158.212 143.48 160.692 141.64C163.172 139.72 166.332 136.48 170.172 131.92C171.132 130.8 172.212 130.24 173.412 130.24ZM158.652 56.08C156.812 56.08 154.732 59.4 152.412 66.04C150.092 72.68 148.052 80.92 146.292 90.76C144.532 100.6 143.572 110.04 143.412 119.08C149.092 109.72 153.612 100.36 156.972 91C160.332 81.56 162.012 72.96 162.012 65.2C162.012 59.12 160.892 56.08 158.652 56.08ZM180.661 157.6C175.701 157.6 171.741 155.8 168.781 152.2C165.821 148.6 164.341 143.88 164.341 138.04C164.341 131.64 165.821 125.6 168.781 119.92C171.741 114.16 175.661 109.56 180.541 106.12C185.501 102.6 190.741 100.84 196.261 100.84C198.021 100.84 199.181 101.2 199.741 101.92C200.381 102.56 200.901 103.76 201.301 105.52C202.981 105.2 204.741 105.04 206.581 105.04C210.501 105.04 212.461 106.44 212.461 109.24C212.461 110.92 211.861 114.92 210.661 121.24C208.821 130.44 207.901 136.84 207.901 140.44C207.901 141.64 208.181 142.6 208.741 143.32C209.381 144.04 210.181 144.4 211.141 144.4C212.661 144.4 214.501 143.44 216.661 141.52C218.821 139.52 221.741 136.32 225.421 131.92C226.381 130.8 227.461 130.24 228.661 130.24C229.701 130.24 230.501 130.72 231.061 131.68C231.701 132.64 232.021 133.96 232.021 135.64C232.021 138.84 231.261 141.32 229.741 143.08C226.461 147.16 222.981 150.6 219.301 153.4C215.621 156.2 212.061 157.6 208.621 157.6C205.981 157.6 203.541 156.72 201.301 154.96C199.141 153.12 197.501 150.64 196.381 147.52C192.221 154.24 186.981 157.6 180.661 157.6ZM184.981 145.48C186.741 145.48 188.421 144.44 190.021 142.36C191.621 140.28 192.781 137.52 193.501 134.08L197.941 112C194.581 112.08 191.461 113.36 188.581 115.84C185.781 118.24 183.541 121.44 181.861 125.44C180.181 129.44 179.341 133.68 179.341 138.16C179.341 140.64 179.821 142.48 180.781 143.68C181.821 144.88 183.221 145.48 184.981 145.48ZM312.96 120.52C313.2 120.44 313.6 120.4 314.16 120.4C315.36 120.4 316.28 120.8 316.92 121.6C317.56 122.4 317.88 123.48 317.88 124.84C317.88 127.32 317.4 129.28 316.44 130.72C315.48 132.08 314.04 133.08 312.12 133.72C308.44 134.92 304.52 135.52 300.36 135.52C296.84 135.52 293.52 135.04 290.4 134.08C288.08 137.84 285.52 141.72 282.72 145.72C279.52 150.28 276.76 153.4 274.44 155.08C272.2 156.76 269.64 157.6 266.76 157.6C263.56 157.6 261.12 156.36 259.44 153.88C257.84 151.4 256.84 147.32 256.44 141.64L255.84 132.88C253.36 139.6 251.12 144.72 249.12 148.24C247.2 151.76 245.24 154.2 243.24 155.56C241.32 156.92 239.04 157.6 236.4 157.6C233.12 157.6 230.52 156.32 228.6 153.76C226.76 151.2 225.6 147.16 225.12 141.64C224.16 130.44 223.68 120.64 223.68 112.24V108.04C223.76 105.4 224.48 103.56 225.84 102.52C227.2 101.48 229.24 100.96 231.96 100.96C234.04 100.96 235.56 101.44 236.52 102.4C237.56 103.28 238.08 104.8 238.08 106.96C238.08 116.16 238.64 128.12 239.76 142.84C245.2 131.4 250.2 119.48 254.76 107.08C255.64 104.68 256.68 103.08 257.88 102.28C259.16 101.4 260.68 100.96 262.44 100.96C264.6 100.96 266.08 101.4 266.88 102.28C267.76 103.16 268.2 104.72 268.2 106.96C268.2 116.16 268.76 128.12 269.88 142.84C274.68 135.72 278.28 130.04 280.68 125.8C279.48 123.48 278.88 120.72 278.88 117.52C278.88 114.8 279.48 112.16 280.68 109.6C281.88 107.04 283.52 104.96 285.6 103.36C287.68 101.76 290.04 100.96 292.68 100.96C295 100.96 296.88 101.8 298.32 103.48C299.76 105.08 300.48 107.44 300.48 110.56C300.48 114.16 299.52 118.28 297.6 122.92C300.64 122.76 304.68 122.16 309.72 121.12L312.96 120.52ZM315.983 157.6C312.943 157.6 310.783 156 309.503 152.8C308.303 149.6 307.703 144.48 307.703 137.44C307.703 127.04 309.183 117.16 312.143 107.8C312.863 105.48 314.023 103.8 315.623 102.76C317.303 101.64 319.623 101.08 322.583 101.08C324.183 101.08 325.303 101.28 325.943 101.68C326.583 102.08 326.903 102.84 326.903 103.96C326.903 105.24 326.303 108.12 325.103 112.6C324.303 115.8 323.663 118.6 323.183 121C322.703 123.4 322.303 126.36 321.983 129.88C324.623 123 327.583 117.4 330.863 113.08C334.143 108.76 337.343 105.68 340.463 103.84C343.663 102 346.583 101.08 349.223 101.08C351.783 101.08 353.703 101.76 354.983 103.12C356.343 104.4 357.023 106.32 357.023 108.88C357.023 110.96 356.583 114.88 355.703 120.64C354.903 125.52 354.263 130.16 353.783 134.56C353.303 138.88 353.063 143.72 353.063 149.08C353.063 152.12 352.423 154.32 351.143 155.68C349.943 156.96 347.943 157.6 345.143 157.6C342.503 157.6 340.583 156.92 339.383 155.56C338.183 154.2 337.583 152.16 337.583 149.44C337.583 146.24 338.143 140.96 339.263 133.6C340.223 127.2 340.703 123.12 340.703 121.36C340.703 120.08 340.263 119.44 339.383 119.44C338.343 119.44 336.863 120.8 334.943 123.52C333.103 126.16 331.183 129.68 329.183 134.08C327.263 138.48 325.703 143.12 324.503 148C323.623 151.76 322.583 154.32 321.383 155.68C320.263 156.96 318.463 157.6 315.983 157.6Z" fill="#99BC85"/>
<path d="M153.739 199.712C154.848 199.712 155.701 200.267 156.299 201.376C156.981 202.4 157.323 203.723 157.323 205.344C157.323 207.307 157.024 208.843 156.427 209.952C155.829 211.061 154.891 212.043 153.611 212.896C148.576 216.224 140.555 221.685 129.547 229.28C126.219 246.944 121.909 260.853 116.619 271.008C111.328 281.163 104.629 286.24 96.5225 286.24C92.1705 286.24 88.6292 284.875 85.8985 282.144C83.1678 279.499 81.8025 276 81.8025 271.648C81.8025 267.637 82.6985 263.584 84.4905 259.488C86.2825 255.392 89.6105 250.656 94.4745 245.28C99.4238 239.904 106.379 233.76 115.339 226.848L115.723 224.416C108.981 227.232 102.368 228.64 95.8825 228.64C86.3252 228.64 77.9198 226.805 70.6665 223.136C63.4132 219.381 57.7812 214.091 53.7705 207.264C49.7598 200.437 47.7545 192.501 47.7545 183.456C47.7545 170.827 50.1438 159.691 54.9225 150.048C59.7012 140.32 66.2718 132.811 74.6345 127.52C83.0825 122.144 92.5118 119.456 102.923 119.456C112.907 119.456 120.373 121.803 125.323 126.496C130.357 131.104 132.875 137.248 132.875 144.928C132.875 149.963 131.936 154.016 130.059 157.088C128.267 160.075 125.664 161.568 122.251 161.568C119.947 161.568 118.069 161.013 116.619 159.904C115.253 158.795 114.571 157.259 114.571 155.296C114.571 154.443 114.741 152.992 115.083 150.944C115.595 148.555 115.851 146.677 115.851 145.312C115.851 141.728 114.741 138.955 112.523 136.992C110.389 135.029 106.763 134.048 101.643 134.048C95.4132 134.048 89.6105 135.84 84.2345 139.424C78.9438 143.008 74.6772 148.384 71.4345 155.552C68.1918 162.635 66.5705 171.168 66.5705 181.152C66.5705 191.392 69.3438 199.328 74.8905 204.96C80.5225 210.507 88.6292 213.28 99.2105 213.28C105.099 213.28 111.243 211.957 117.643 209.312L119.435 193.696H106.379C103.989 193.696 102.155 193.141 100.875 192.032C99.5945 190.837 98.9545 188.917 98.9545 186.272C98.9545 183.883 99.5945 182.005 100.875 180.64C102.155 179.275 103.861 178.592 105.995 178.592H129.931C131.808 178.592 133.344 179.232 134.539 180.512C135.819 181.707 136.331 183.456 136.075 185.76C135.819 188.491 134.965 194.677 133.515 204.32L132.107 214.048C138.933 208.928 145.163 204.491 150.795 200.736C151.904 200.053 152.885 199.712 153.739 199.712ZM97.9305 273.824C100.149 273.824 102.581 271.307 105.227 266.272C107.872 261.237 110.347 253.131 112.651 241.952C106.165 247.499 101.472 252.491 98.5705 256.928C95.7545 261.451 94.3465 265.419 94.3465 268.832C94.3465 272.16 95.5412 273.824 97.9305 273.824ZM157.17 228.64C153.927 228.64 151.623 226.933 150.258 223.52C148.978 220.107 148.338 214.645 148.338 207.136C148.338 196.043 149.916 185.504 153.074 175.52C153.842 173.045 155.079 171.253 156.786 170.144C158.578 168.949 161.052 168.352 164.21 168.352C165.916 168.352 167.111 168.565 167.794 168.992C168.476 169.419 168.818 170.229 168.818 171.424C168.818 172.789 168.178 175.861 166.898 180.64C166.044 184.053 165.362 187.04 164.85 189.6C164.338 192.16 163.911 195.317 163.57 199.072C166.386 191.733 169.543 185.76 173.042 181.152C176.54 176.544 179.954 173.259 183.282 171.296C186.695 169.333 189.81 168.352 192.626 168.352C198.172 168.352 200.946 171.125 200.946 176.672C200.946 177.781 200.562 180.469 199.794 184.736C199.111 188.149 198.77 190.283 198.77 191.136C198.77 194.123 199.836 195.616 201.97 195.616C204.359 195.616 207.431 193.739 211.186 189.984C212.295 188.875 213.447 188.32 214.642 188.32C215.751 188.32 216.604 188.832 217.201 189.856C217.884 190.795 218.226 192.075 218.226 193.696C218.226 196.853 217.372 199.328 215.666 201.12C213.276 203.595 210.46 205.728 207.218 207.52C204.06 209.227 200.69 210.08 197.106 210.08C192.583 210.08 189.127 208.928 186.738 206.624C184.434 204.32 183.282 201.205 183.282 197.28C183.282 196 183.41 194.72 183.666 193.44C183.836 191.733 183.922 190.581 183.922 189.984C183.922 188.619 183.452 187.936 182.514 187.936C181.234 187.936 179.527 189.387 177.394 192.288C175.346 195.104 173.298 198.859 171.25 203.552C169.202 208.245 167.538 213.195 166.258 218.4C165.319 222.411 164.21 225.141 162.93 226.592C161.735 227.957 159.815 228.64 157.17 228.64ZM222.076 228.64C216.785 228.64 212.561 226.72 209.404 222.88C206.246 219.04 204.668 214.005 204.668 207.776C204.668 200.949 206.246 194.507 209.404 188.448C212.561 182.304 216.742 177.397 221.948 173.728C227.238 169.973 232.828 168.096 238.716 168.096C240.593 168.096 241.83 168.48 242.428 169.248C243.11 169.931 243.665 171.211 244.092 173.088C245.884 172.747 247.761 172.576 249.724 172.576C253.905 172.576 255.996 174.069 255.996 177.056C255.996 178.848 255.356 183.115 254.076 189.856C252.113 199.669 251.132 206.496 251.132 210.336C251.132 211.616 251.43 212.64 252.028 213.408C252.71 214.176 253.564 214.56 254.588 214.56C256.209 214.56 258.172 213.536 260.476 211.488C262.78 209.355 265.894 205.941 269.82 201.248C270.844 200.053 271.996 199.456 273.276 199.456C274.385 199.456 275.238 199.968 275.836 200.992C276.518 202.016 276.86 203.424 276.86 205.216C276.86 208.629 276.049 211.275 274.428 213.152C270.929 217.504 267.217 221.173 263.292 224.16C259.366 227.147 255.569 228.64 251.9 228.64C249.084 228.64 246.481 227.701 244.092 225.824C241.788 223.861 240.038 221.216 238.844 217.888C234.406 225.056 228.817 228.64 222.076 228.64ZM226.684 215.712C228.561 215.712 230.353 214.603 232.06 212.384C233.766 210.165 235.004 207.221 235.772 203.552L240.508 180C236.924 180.085 233.596 181.451 230.524 184.096C227.537 186.656 225.148 190.069 223.356 194.336C221.564 198.603 220.668 203.125 220.668 207.904C220.668 210.549 221.18 212.512 222.204 213.792C223.313 215.072 224.806 215.712 226.684 215.712ZM339.161 199.456C340.27 199.456 341.123 199.968 341.721 200.992C342.403 202.016 342.745 203.424 342.745 205.216C342.745 208.629 341.934 211.275 340.312 213.152C336.814 217.419 332.974 221.088 328.793 224.16C324.611 227.147 320.473 228.64 316.377 228.64C309.891 228.64 304.942 224.843 301.529 217.248C297.945 221.771 294.787 224.8 292.057 226.336C289.411 227.872 286.297 228.64 282.713 228.64C277.507 228.64 273.198 226.72 269.785 222.88C266.457 218.955 264.793 213.877 264.793 207.648C264.793 200.821 266.243 194.507 269.145 188.704C272.046 182.816 276.014 178.037 281.049 174.368C286.169 170.613 291.886 168.395 298.201 167.712C299.822 151.157 302.894 137.035 307.417 125.344C312.025 113.568 318.041 107.68 325.465 107.68C329.134 107.68 332.163 109.344 334.553 112.672C337.027 116 338.265 121.035 338.265 127.776C338.265 137.333 335.918 148.512 331.225 161.312C326.531 174.112 320.259 187.253 312.409 200.736C312.75 205.685 313.475 209.227 314.585 211.36C315.779 213.493 317.273 214.56 319.065 214.56C321.369 214.56 323.715 213.536 326.104 211.488C328.494 209.44 331.694 206.027 335.705 201.248C336.729 200.053 337.881 199.456 339.161 199.456ZM324.057 120.224C322.435 120.224 320.814 123.125 319.193 128.928C317.571 134.645 316.163 142.155 314.969 151.456C313.859 160.757 313.049 170.485 312.537 180.64C322.094 159.819 326.873 143.093 326.873 130.464C326.873 127.221 326.574 124.704 325.977 122.912C325.465 121.12 324.825 120.224 324.057 120.224ZM287.193 215.712C288.814 215.712 290.435 215.072 292.057 213.792C293.678 212.427 295.726 209.952 298.201 206.368C297.347 201.76 296.921 196.597 296.921 190.88C296.921 188.832 297.006 185.504 297.177 180.896C292.483 182.347 288.558 185.504 285.401 190.368C282.329 195.147 280.793 200.48 280.793 206.368C280.793 212.597 282.926 215.712 287.193 215.712ZM389.42 199.456C390.529 199.456 391.382 199.968 391.979 200.992C392.662 202.016 393.004 203.424 393.004 205.216C393.004 208.629 392.193 211.275 390.572 213.152C387.414 216.992 382.934 220.533 377.132 223.776C371.414 227.019 365.27 228.64 358.7 228.64C349.74 228.64 342.785 226.208 337.836 221.344C332.886 216.48 330.411 209.824 330.411 201.376C330.411 195.488 331.649 190.027 334.124 184.992C336.598 179.872 340.012 175.819 344.364 172.832C348.801 169.845 353.793 168.352 359.34 168.352C364.289 168.352 368.257 169.845 371.244 172.832C374.23 175.733 375.724 179.701 375.724 184.736C375.724 190.624 373.59 195.701 369.324 199.968C365.142 204.149 358.017 207.477 347.948 209.952C350.081 213.877 354.134 215.84 360.108 215.84C363.948 215.84 368.3 214.517 373.164 211.872C378.113 209.141 382.38 205.6 385.964 201.248C386.988 200.053 388.14 199.456 389.42 199.456ZM357.164 180.896C354.006 180.896 351.318 182.731 349.1 186.4C346.966 190.069 345.9 194.507 345.9 199.712V199.968C350.934 198.773 354.902 196.981 357.804 194.592C360.705 192.203 362.156 189.429 362.156 186.272C362.156 184.651 361.686 183.371 360.748 182.432C359.894 181.408 358.7 180.896 357.164 180.896ZM391.67 228.64C388.427 228.64 386.123 226.933 384.758 223.52C383.478 220.107 382.838 214.645 382.838 207.136C382.838 196.043 384.416 185.504 387.574 175.52C388.342 173.045 389.579 171.253 391.286 170.144C393.078 168.949 395.552 168.352 398.71 168.352C400.416 168.352 401.611 168.565 402.294 168.992C402.976 169.419 403.318 170.229 403.318 171.424C403.318 172.789 402.678 175.861 401.398 180.64C400.544 184.053 399.862 187.04 399.35 189.6C398.838 192.16 398.411 195.317 398.07 199.072C400.886 191.733 404.043 185.76 407.542 181.152C411.04 176.544 414.454 173.259 417.782 171.296C421.195 169.333 424.31 168.352 427.126 168.352C429.856 168.352 431.904 169.077 433.27 170.528C434.72 171.893 435.446 173.941 435.446 176.672C435.446 178.891 434.976 183.072 434.038 189.216C433.184 194.421 432.502 199.371 431.99 204.064C431.478 208.672 431.222 213.835 431.222 219.552C431.222 222.795 430.539 225.141 429.174 226.592C427.894 227.957 425.76 228.64 422.774 228.64C419.958 228.64 417.91 227.915 416.63 226.464C415.35 225.013 414.71 222.837 414.71 219.936C414.71 216.523 415.307 210.891 416.502 203.04C417.526 196.213 418.038 191.861 418.038 189.984C418.038 188.619 417.568 187.936 416.63 187.936C415.52 187.936 413.942 189.387 411.894 192.288C409.931 195.104 407.883 198.859 405.75 203.552C403.702 208.245 402.038 213.195 400.758 218.4C399.819 222.411 398.71 225.141 397.43 226.592C396.235 227.957 394.315 228.64 391.67 228.64Z" fill="#3D8D7A"/>
</svg>
