<svg width="1920" height="200" viewBox="0 0 1920 200" fill="none" xmlns="http://www.w3.org/2000/svg">
<path d="M12 155H1932L1970 272L1932 389H12L-8 272L12 155Z" fill="#3D8D7A"/>
<path d="M172 153.5C172 218.946 122.304 272 61 272C-0.303608 272 -50 218.946 -50 153.5C-50 88.0543 -0.303608 35 61 35C122.304 35 172 88.0543 172 153.5Z" fill="#3D8D7A"/>
<path d="M372 181C372 243.96 318.05 295 251.5 295C184.95 295 131 243.96 131 181C131 118.04 184.95 67 251.5 67C318.05 67 372 118.04 372 181Z" fill="#3D8D7A"/>
<path d="M577 149C577 211.96 523.05 263 456.5 263C389.95 263 336 211.96 336 149C336 86.0395 389.95 35 456.5 35C523.05 35 577 86.0395 577 149Z" fill="#3D8D7A"/>
<path d="M782 181C782 243.96 728.05 295 661.5 295C594.95 295 541 243.96 541 181C541 118.04 594.95 67 661.5 67C728.05 67 782 118.04 782 181Z" fill="#3D8D7A"/>
<path d="M987 114C987 176.96 933.05 228 866.5 228C799.95 228 746 176.96 746 114C746 51.0395 799.95 0 866.5 0C933.05 0 987 51.0395 987 114Z" fill="#3D8D7A"/>
<path d="M1187 155C1187 217.96 1133.05 269 1066.5 269C999.95 269 946 217.96 946 155C946 92.0395 999.95 41 1066.5 41C1133.05 41 1187 92.0395 1187 155Z" fill="#3D8D7A"/>
<path d="M1451 147.5C1451 228.962 1383.84 295 1301 295C1218.16 295 1151 228.962 1151 147.5C1151 66.038 1218.16 0 1301 0C1383.84 0 1451 66.038 1451 147.5Z" fill="#3D8D7A"/>
<path d="M1697 214.5C1697 295.962 1629.84 362 1547 362C1464.16 362 1397 295.962 1397 214.5C1397 133.038 1464.16 67 1547 67C1629.84 67 1697 133.038 1697 214.5Z" fill="#3D8D7A"/>
<path d="M1970 147.5C1970 228.962 1902.84 295 1820 295C1737.16 295 1670 228.962 1670 147.5C1670 66.038 1737.16 0 1820 0C1902.84 0 1970 66.038 1970 147.5Z" fill="#3D8D7A"/>
</svg>
