<svg width="2207" height="470" viewBox="0 0 2207 470" fill="none" xmlns="http://www.w3.org/2000/svg">
<path d="M249 155H2169L2207 272L2169 389H249L229 272L249 155Z" fill="#B3D8A8"/>
<path d="M409 153.5C409 218.946 359.304 272 298 272C236.696 272 187 218.946 187 153.5C187 88.0543 236.696 35 298 35C359.304 35 409 88.0543 409 153.5Z" fill="#B3D8A8"/>
<path d="M609 181C609 243.96 555.05 295 488.5 295C421.95 295 368 243.96 368 181C368 118.04 421.95 67 488.5 67C555.05 67 609 118.04 609 181Z" fill="#B3D8A8"/>
<path d="M814 149C814 211.96 760.05 263 693.5 263C626.95 263 573 211.96 573 149C573 86.0395 626.95 35 693.5 35C760.05 35 814 86.0395 814 149Z" fill="#B3D8A8"/>
<path d="M1019 181C1019 243.96 965.05 295 898.5 295C831.95 295 778 243.96 778 181C778 118.04 831.95 67 898.5 67C965.05 67 1019 118.04 1019 181Z" fill="#B3D8A8"/>
<path d="M1224 114C1224 176.96 1170.05 228 1103.5 228C1036.95 228 983 176.96 983 114C983 51.0395 1036.95 0 1103.5 0C1170.05 0 1224 51.0395 1224 114Z" fill="#B3D8A8"/>
<path d="M1424 155C1424 217.96 1370.05 269 1303.5 269C1236.95 269 1183 217.96 1183 155C1183 92.0395 1236.95 41 1303.5 41C1370.05 41 1424 92.0395 1424 155Z" fill="#B3D8A8"/>
<path d="M1688 147.5C1688 228.962 1620.84 295 1538 295C1455.16 295 1388 228.962 1388 147.5C1388 66.038 1455.16 0 1538 0C1620.84 0 1688 66.038 1688 147.5Z" fill="#B3D8A8"/>
<path d="M1934 214.5C1934 295.962 1866.84 362 1784 362C1701.16 362 1634 295.962 1634 214.5C1634 133.038 1701.16 67 1784 67C1866.84 67 1934 133.038 1934 214.5Z" fill="#B3D8A8"/>
<path d="M2207 147.5C2207 228.962 2139.84 295 2057 295C1974.16 295 1907 228.962 1907 147.5C1907 66.038 1974.16 0 2057 0C2139.84 0 2207 66.038 2207 147.5Z" fill="#B3D8A8"/>
<path d="M221 105C221 162.99 171.527 210 110.5 210C49.4725 210 0 162.99 0 105C0 47.0101 49.4725 0 110.5 0C171.527 0 221 47.0101 221 105Z" fill="#B3D8A8"/>
<path d="M1017 130C1017 187.99 967.527 235 906.5 235C845.473 235 796 187.99 796 130C796 72.0101 845.473 25 906.5 25C967.527 25 1017 72.0101 1017 130Z" fill="#B3D8A8"/>
<path d="M98 236H2018L2056 353L2018 470H98L78 353L98 236Z" fill="#3D8D7A"/>
<path d="M258 234.5C258 299.946 208.304 353 147 353C85.6964 353 36 299.946 36 234.5C36 169.054 85.6964 116 147 116C208.304 116 258 169.054 258 234.5Z" fill="#3D8D7A"/>
<path d="M458 262C458 324.96 404.05 376 337.5 376C270.95 376 217 324.96 217 262C217 199.04 270.95 148 337.5 148C404.05 148 458 199.04 458 262Z" fill="#3D8D7A"/>
<path d="M663 230C663 292.96 609.05 344 542.5 344C475.95 344 422 292.96 422 230C422 167.04 475.95 116 542.5 116C609.05 116 663 167.04 663 230Z" fill="#3D8D7A"/>
<path d="M868 262C868 324.96 814.05 376 747.5 376C680.95 376 627 324.96 627 262C627 199.04 680.95 148 747.5 148C814.05 148 868 199.04 868 262Z" fill="#3D8D7A"/>
<path d="M1073 195C1073 257.96 1019.05 309 952.5 309C885.95 309 832 257.96 832 195C832 132.04 885.95 81 952.5 81C1019.05 81 1073 132.04 1073 195Z" fill="#3D8D7A"/>
<path d="M1273 236C1273 298.96 1219.05 350 1152.5 350C1085.95 350 1032 298.96 1032 236C1032 173.04 1085.95 122 1152.5 122C1219.05 122 1273 173.04 1273 236Z" fill="#3D8D7A"/>
<path d="M1537 228.5C1537 309.962 1469.84 376 1387 376C1304.16 376 1237 309.962 1237 228.5C1237 147.038 1304.16 81 1387 81C1469.84 81 1537 147.038 1537 228.5Z" fill="#3D8D7A"/>
<path d="M1783 295.5C1783 376.962 1715.84 443 1633 443C1550.16 443 1483 376.962 1483 295.5C1483 214.038 1550.16 148 1633 148C1715.84 148 1783 214.038 1783 295.5Z" fill="#3D8D7A"/>
<path d="M2056 228.5C2056 309.962 1988.84 376 1906 376C1823.16 376 1756 309.962 1756 228.5C1756 147.038 1823.16 81 1906 81C1988.84 81 2056 147.038 2056 228.5Z" fill="#3D8D7A"/>
</svg>
