<svg width="1920" height="281" viewBox="0 0 1920 281" fill="none" xmlns="http://www.w3.org/2000/svg">
<path d="M163 155H2083L2121 272L2083 389H163L143 272L163 155Z" fill="#B3D8A8"/>
<path d="M323 153.5C323 218.946 273.304 272 212 272C150.696 272 101 218.946 101 153.5C101 88.0543 150.696 35 212 35C273.304 35 323 88.0543 323 153.5Z" fill="#B3D8A8"/>
<path d="M523 181C523 243.96 469.05 295 402.5 295C335.95 295 282 243.96 282 181C282 118.04 335.95 67 402.5 67C469.05 67 523 118.04 523 181Z" fill="#B3D8A8"/>
<path d="M728 149C728 211.96 674.05 263 607.5 263C540.95 263 487 211.96 487 149C487 86.0395 540.95 35 607.5 35C674.05 35 728 86.0395 728 149Z" fill="#B3D8A8"/>
<path d="M933 181C933 243.96 879.05 295 812.5 295C745.95 295 692 243.96 692 181C692 118.04 745.95 67 812.5 67C879.05 67 933 118.04 933 181Z" fill="#B3D8A8"/>
<path d="M1138 114C1138 176.96 1084.05 228 1017.5 228C950.95 228 897 176.96 897 114C897 51.0395 950.95 0 1017.5 0C1084.05 0 1138 51.0395 1138 114Z" fill="#B3D8A8"/>
<path d="M1338 155C1338 217.96 1284.05 269 1217.5 269C1150.95 269 1097 217.96 1097 155C1097 92.0395 1150.95 41 1217.5 41C1284.05 41 1338 92.0395 1338 155Z" fill="#B3D8A8"/>
<path d="M1602 147.5C1602 228.962 1534.84 295 1452 295C1369.16 295 1302 228.962 1302 147.5C1302 66.038 1369.16 0 1452 0C1534.84 0 1602 66.038 1602 147.5Z" fill="#B3D8A8"/>
<path d="M1848 214.5C1848 295.962 1780.84 362 1698 362C1615.16 362 1548 295.962 1548 214.5C1548 133.038 1615.16 67 1698 67C1780.84 67 1848 133.038 1848 214.5Z" fill="#B3D8A8"/>
<path d="M2121 147.5C2121 228.962 2053.84 295 1971 295C1888.16 295 1821 228.962 1821 147.5C1821 66.038 1888.16 0 1971 0C2053.84 0 2121 66.038 2121 147.5Z" fill="#B3D8A8"/>
<path d="M135 105C135 162.99 85.5275 210 24.5 210C-36.5275 210 -86 162.99 -86 105C-86 47.0101 -36.5275 0 24.5 0C85.5275 0 135 47.0101 135 105Z" fill="#B3D8A8"/>
<path d="M931 130C931 187.99 881.527 235 820.5 235C759.473 235 710 187.99 710 130C710 72.0101 759.473 25 820.5 25C881.527 25 931 72.0101 931 130Z" fill="#B3D8A8"/>
</svg>
